<svg width="312" height="138" viewBox="0 0 312 138" fill="none" xmlns="http://www.w3.org/2000/svg">
<path d="M90.9946 36.9681L88.3685 37.1309C88.5925 36.3167 89.2032 36.2963 89.6307 36.0724C89.9653 35.913 90.2915 35.7364 90.6078 35.5431C91.2592 35.0749 91.2185 34.6067 90.4653 34.2606C90.1396 34.1181 89.7731 34.0164 89.2846 33.8331C89.4882 32.4082 89.6714 31.0035 89.936 29.6193C89.9899 29.4727 90.0739 29.339 90.1826 29.2268C90.2913 29.1146 90.4223 29.0264 90.5671 28.9679C90.917 28.8518 91.2868 28.8073 91.6543 28.8371C92.0218 28.8669 92.3796 28.9704 92.7063 29.1413C93.033 29.3123 93.322 29.5472 93.556 29.8322C93.79 30.1171 93.9643 30.4463 94.0684 30.8C94.1702 31.2682 94.0684 31.7567 94.2313 32.225C94.3941 33.5074 94.7199 33.7517 95.9005 33.2835C97.7734 32.5507 99.6258 31.7364 101.478 30.9221L118.904 23.1051L119.779 22.7183C121.672 21.843 121.815 21.0084 120.349 19.5427C119.646 19.005 119.156 18.2358 118.966 17.3713C118.776 16.5067 118.898 15.6028 119.311 14.8199C119.983 13.3746 120.451 11.8478 121.123 10.4228C121.385 9.80421 121.839 9.2863 122.418 8.94545C122.997 8.60459 123.671 8.45882 124.339 8.52963C125.043 8.49921 125.734 8.33332 126.375 8.04107C126.682 7.93517 126.951 7.74203 127.15 7.48531C127.349 7.2286 127.468 6.91945 127.494 6.59574C127.616 5.65932 127.8 4.70255 127.82 3.76614C127.82 3.44043 127.494 3.07401 127.23 2.78901C126.893 2.5067 126.532 2.25466 126.151 2.03581C126.968 1.99595 127.776 1.84529 128.553 1.58796C129.123 1.28261 129.51 0.631193 129.998 0.14263C130.079 0.0707483 130.177 0.0215753 130.283 0.000132292C131.051 -0.00562959 131.809 0.176907 132.491 0.531778C133.172 0.886649 133.756 1.40305 134.192 2.03581C134.612 2.74154 135.074 3.42133 135.576 4.07149C133.662 4.45827 133.703 6.43288 132.746 7.65429C132.618 7.80916 132.527 7.99113 132.48 8.18639C132.433 8.38165 132.431 8.58508 132.474 8.78126C132.517 8.97744 132.605 9.16122 132.729 9.31867C132.854 9.47611 133.013 9.60309 133.194 9.68997C133.532 9.94937 133.885 10.1873 134.253 10.4025C134.871 10.7594 135.385 11.2727 135.742 11.8909C136.099 12.509 136.288 13.2102 136.288 13.9242C136.288 15.4509 136.635 15.6545 138.039 15.0642C140.726 13.9242 143.373 12.7231 146.06 11.5424C146.741 11.086 147.573 10.9109 148.38 11.0539C148.258 11.7867 147.668 11.8478 147.22 12.0514C144.309 13.3135 141.378 14.596 138.446 15.8174C137.762 16.0147 137.136 16.3753 136.621 16.8682C136.107 17.3611 135.721 17.9715 135.495 18.647C135.122 19.5266 134.452 20.2472 133.601 20.6826C132.836 21.0842 132.198 21.6914 131.759 22.4359C131.321 23.1804 131.098 24.0326 131.118 24.8965C131.118 28.7643 130.935 32.6524 131.118 36.5202C131.404 39.2076 131.867 41.8733 132.502 44.5001C132.716 45.1642 132.995 45.8053 133.337 46.4136L134.721 45.0294C135.942 43.7876 137.123 42.5051 138.385 41.2837C139.647 40.0623 139.403 40.388 138.914 39.1259C138.524 38.2178 138.366 37.2266 138.454 36.242C138.543 35.2574 138.876 34.3105 139.423 33.4871C139.731 32.8551 140.276 32.3701 140.939 32.1375C141.602 31.905 142.331 31.9437 142.965 32.2453C143.34 32.3415 143.691 32.5122 143.998 32.7473C144.304 32.9824 144.56 33.277 144.75 33.6135C144.941 33.95 145.061 34.3213 145.104 34.7054C145.147 35.0894 145.112 35.4782 145.001 35.8485C144.838 36.5813 144.553 37.2734 144.39 37.9859C144.228 38.6984 144.635 39.6348 145.734 40.0216C145.955 40.1128 146.193 40.1581 146.432 40.1549C146.671 40.1517 146.908 40.1001 147.126 40.003C147.345 39.906 147.542 39.7656 147.705 39.5904C147.868 39.4151 147.994 39.2086 148.075 38.9834C148.201 38.5207 148.303 38.0519 148.38 37.5788C148.507 36.9764 148.752 36.4052 149.102 35.8984C149.451 35.3917 149.898 34.9595 150.416 34.6271C150.915 34.2948 151.487 34.09 152.084 34.0304C152.68 33.9708 153.282 34.0584 153.836 34.2855C154.391 34.5125 154.881 34.8721 155.264 35.3327C155.648 35.7933 155.912 36.3408 156.035 36.9274C156.105 37.5098 156.049 38.1006 155.869 38.6593C155.69 39.2179 155.392 39.7313 154.996 40.1641C154.671 40.6323 154.284 41.0598 153.917 41.528C154.175 41.9869 154.573 42.351 155.053 42.5672C155.533 42.7833 156.07 42.8401 156.584 42.7291C157.745 42.5459 158.864 42.2405 160.004 41.9962C160.166 41.9839 160.322 41.9361 160.463 41.8562C160.604 41.7763 160.725 41.6663 160.819 41.5341C160.912 41.4018 160.975 41.2506 161.003 41.0912C161.031 40.9318 161.024 40.7682 160.981 40.612C160.981 40.1845 160.839 39.7773 160.818 39.3498C160.718 38.291 160.999 37.2309 161.611 36.3611C162.223 35.4913 163.126 34.869 164.157 34.6067C165.245 34.4755 166.346 34.7157 167.281 35.2884C168.216 35.8611 168.93 36.7327 169.307 37.762C169.314 37.8161 169.314 37.8708 169.307 37.9249C169.45 40.2048 170.203 40.103 172.381 39.6348C173.786 39.3295 175.19 39.0852 176.595 38.8206C182.234 37.7824 187.873 36.7849 193.491 35.706C198.438 34.7492 203.384 33.7924 208.29 32.571C213.196 31.3496 217.777 29.9246 222.54 28.4997C224.732 27.8835 226.886 27.1426 228.993 26.2808C230.886 25.4552 232.71 24.4818 234.449 23.3697C235.433 22.6832 236.264 21.8009 236.891 20.778C237.518 19.7552 237.927 18.6138 238.093 17.4256C238.179 17.0107 238.213 16.5867 238.195 16.1634C238.195 14.7385 237.625 14.311 236.159 14.4128C235.894 14.4128 235.589 14.5552 235.385 14.4128C235.182 14.2703 234.591 14.026 234.49 13.741C234.455 13.6249 234.448 13.5025 234.469 13.3832C234.489 13.2639 234.536 13.1509 234.607 13.0526C234.678 12.9544 234.77 12.8737 234.877 12.8166C234.983 12.7595 235.102 12.7275 235.223 12.7231C235.805 12.6848 236.39 12.6848 236.973 12.7231C238.215 12.7231 238.581 12.4789 238.846 11.2574C238.948 10.7485 238.968 10.1989 239.029 9.66961C239.172 8.67213 239.294 7.63393 239.518 6.69752C239.758 5.63944 240.245 4.653 240.938 3.81826C241.631 2.98353 242.512 2.32403 243.508 1.89332C244.648 1.36404 245.828 0.875475 247.152 0.325841C247.187 0.589305 247.187 0.856293 247.152 1.11976C246.622 3.39972 246.073 5.65932 245.523 7.91893C245.523 8.32607 245.319 8.7332 245.238 9.16069C245.214 9.65255 245.023 10.1216 244.698 10.4913C244.372 10.861 243.931 11.1095 243.447 11.1964C242.994 11.2631 242.578 11.4801 242.264 11.8125C241.95 12.1448 241.757 12.5732 241.716 13.0285L243.935 13.2117C244.057 14.4738 243.935 14.6367 242.978 14.7385C242.501 14.7299 242.023 14.7708 241.553 14.8606C241.268 14.8606 241.085 15.3288 240.861 15.5934C241.126 15.797 241.37 16.1024 241.676 16.1634C241.981 16.2245 242.632 16.1634 243.101 16.1634C243.526 16.2513 243.942 16.3808 244.342 16.5502C243.263 17.6291 241.737 16.5502 240.963 17.8734C241.35 18.647 242.083 18.5045 242.734 18.5248C243.386 18.5452 244.078 18.3416 244.098 19.1762C244.118 20.0109 243.325 19.8887 242.775 19.8684C242.367 19.8117 241.952 19.8364 241.553 19.9413C241.155 20.0461 240.781 20.2289 240.454 20.4791C240.719 21.2526 241.268 21.0898 241.696 21.0898C242.123 21.0898 242.551 21.0898 242.958 21.0898C243.365 21.0898 243.895 21.3748 243.854 21.9651C243.861 22.1011 243.836 22.2368 243.781 22.3614C243.727 22.4861 243.643 22.5963 243.539 22.6833C243.434 22.7702 243.31 22.8315 243.178 22.8624C243.045 22.8932 242.907 22.8927 242.775 22.8608C242.408 22.8608 242.062 22.6573 241.696 22.6369C241.285 22.5686 240.865 22.5686 240.454 22.6369C240.271 22.6369 240.108 23.0033 240.067 23.2272C240.027 23.4512 240.291 23.614 240.454 23.6547C240.973 23.7442 241.496 23.8054 242.022 23.838C242.49 23.838 242.958 24.0415 242.795 24.5708C242.613 24.9101 242.307 25.1655 241.94 25.2833C241.676 25.2833 241.33 25.2833 241.004 25.1611C239.701 24.9983 239.457 25.1611 239.07 26.4436C238.945 26.85 238.85 27.2651 238.785 27.6854C238.596 29.1915 237.965 30.608 236.973 31.7567C235.08 33.9756 233.268 36.2963 231.172 38.2913C229.538 39.73 227.757 40.9923 225.858 42.0573C219.944 45.5145 213.663 48.3003 207.13 50.3629C205.42 50.9329 203.853 51.8693 202.143 52.3985C197.644 53.8439 193.125 55.1874 188.605 56.4699C184.677 57.6099 180.748 58.6684 176.798 59.7066C175.312 60.0934 173.786 60.3173 172.279 60.6431C165.485 62.1037 158.614 63.1843 151.699 63.8798C147.627 64.3073 143.556 64.4905 139.484 64.5719C135.616 64.5907 131.749 64.4004 127.901 64.0019C122.171 63.4956 116.492 62.5151 110.924 61.0705C106.405 59.9102 101.885 58.7092 97.407 57.4063C95.0659 56.7142 92.8063 55.7981 90.5264 54.9431C90.2884 54.8924 90.0628 54.7952 89.8624 54.6573C89.6621 54.5193 89.4908 54.3432 89.3585 54.139C89.2262 53.9349 89.1354 53.7067 89.0912 53.4674C89.0471 53.2281 89.0506 52.9825 89.1014 52.7446C89.1014 51.8489 89.2642 50.9532 89.3864 50.0575C89.9156 46.2304 90.4653 42.383 90.9946 38.5559C91.0267 38.0271 91.0267 37.4969 90.9946 36.9681ZM124.074 45.233H124.624V45.0294L124.135 45.3144C124.258 44.8055 124.359 44.2762 124.502 43.7673C125.487 39.6927 125.797 35.4838 125.418 31.3089C125.418 30.8 125.418 30.2096 124.522 30.0061C124.204 30.2911 123.904 30.5971 123.627 30.9221C121.978 33.0596 120.349 35.2174 118.721 37.3752C116.869 39.9158 115.648 42.8603 115.158 45.9658C114.914 47.2686 115.28 47.7165 116.624 47.8386C117.519 47.8386 118.415 47.8386 119.331 47.8386C122.425 47.8386 122.425 47.8386 124.074 45.233ZM119.128 24.5301C118.171 24.8151 117.56 24.9169 117.092 25.1611L106.283 29.8229C102.781 31.3496 99.3001 32.8967 95.7784 34.4031C95.2189 34.5747 94.7327 34.9283 94.3971 35.4078C94.0615 35.8872 93.8957 36.4651 93.9259 37.0495C93.8363 38.5274 93.8363 40.0094 93.9259 41.4873C93.987 42.5324 94.385 43.5296 95.0602 44.3296C95.7354 45.1296 96.6516 45.6893 97.6716 45.9251C99.7073 46.4136 101.6 46.8208 103.575 47.2076C104.464 47.3608 105.361 47.456 106.262 47.4926C106.66 47.5488 107.066 47.486 107.428 47.3121C107.79 47.1382 108.093 46.861 108.298 46.5154C108.97 45.4365 109.682 44.4798 110.334 43.2583C111.311 41.3855 112.186 39.4516 113.122 37.5381C113.53 36.7035 113.855 35.7874 114.731 35.7467C114.932 34.8423 115.19 33.9516 115.504 33.0799C116.033 31.8585 116.726 30.7389 117.275 29.5379C118.107 27.9559 118.73 26.2726 119.128 24.5301V24.5301ZM166.62 52.4596L164.91 51.8286C165.358 53.2128 165.358 53.2128 166.62 52.4596ZM193.226 36.1742V36.5202C194.033 36.589 194.845 36.4561 195.588 36.1335V35.7467L193.226 36.1742ZM166.274 58.017C165.154 57.8542 165.154 57.8542 164.584 58.5259C164.883 58.6328 165.209 58.641 165.513 58.5494C165.817 58.4578 166.084 58.2713 166.274 58.017V58.017ZM190.926 53.9457C191.578 54.2103 191.924 54.0882 192.127 53.3757C191.476 53.1925 191.13 53.335 190.926 54.0271V53.9457ZM219.833 37.6602V37.0902H218.611V37.8231L219.833 37.6602ZM223.904 37.9045C223.293 37.762 222.723 37.7009 222.398 38.4745C222.649 38.5737 222.926 38.5855 223.184 38.5079C223.443 38.4304 223.668 38.268 223.823 38.047L223.904 37.9045ZM190.153 49.1415C190.295 48.8361 190.458 48.6733 190.438 48.5308C190.417 48.3883 190.214 48.2254 190.112 48.0829C189.969 48.2458 189.766 48.4086 189.725 48.5918C189.684 48.775 189.868 48.8565 190.153 49.1415ZM205.522 42.1998C205.135 41.9962 204.932 41.813 204.708 41.813C204.484 41.813 204.402 42.0369 204.26 42.1591C204.423 42.3219 204.565 42.6069 204.748 42.6273C204.932 42.6476 205.074 42.4237 205.441 42.1998H205.522ZM198.071 52.7446L197.949 52.3985C197.461 52.5003 196.87 52.3985 196.646 53.2535L198.071 52.7446ZM182.01 45.5587C181.748 45.392 181.445 45.3034 181.134 45.3034C180.824 45.3034 180.521 45.392 180.259 45.5587C180.503 45.7679 180.813 45.8829 181.134 45.8829C181.456 45.8829 181.766 45.7679 182.01 45.5587ZM91.6256 30.5353C90.7299 30.3725 90.4653 30.5353 90.4653 31.5328L91.6256 30.5353ZM176.717 53.62C176.452 53.4367 176.208 53.2128 176.167 53.2535C175.976 53.4016 175.829 53.5985 175.74 53.8235C175.74 53.8235 176.045 54.1899 176.106 54.1696C176.333 54.0143 176.539 53.8295 176.717 53.62V53.62ZM96.8166 48.1033L95.4934 46.8208C95.5545 47.7979 95.8395 48.0829 96.8166 48.1033ZM210.509 47.2483L210.774 47.5333C211.059 47.3297 211.344 47.1261 211.588 46.9022C211.833 46.6783 211.588 46.6579 211.588 46.3933L210.509 47.2483ZM186.081 39.1056C186.427 39.3498 186.57 39.5127 186.753 39.5534C186.955 39.5868 187.161 39.5868 187.364 39.5534C187.14 38.6781 186.814 38.6781 186.081 39.0241V39.1056ZM207.049 44.6019C206.884 44.8254 206.741 45.064 206.621 45.3144C206.621 45.3144 206.866 45.5994 206.906 45.579C207.109 45.4807 207.283 45.3338 207.415 45.1515C207.415 45.1515 207.232 44.7851 207.049 44.5205V44.6019ZM169.938 47.0651C169.853 47.2161 169.798 47.3819 169.775 47.5536C169.775 47.6758 169.979 47.8793 170.02 47.859C170.175 47.768 170.318 47.6586 170.447 47.5333L169.938 47.0651ZM133.5 59.0349L133.764 59.3606L134.497 58.7499L134.293 58.5056L133.5 59.0349ZM147.403 56.4903C147.159 56.3274 147.016 56.1849 146.955 56.2053C146.803 56.291 146.665 56.401 146.548 56.531C146.65 56.531 146.772 56.7956 146.854 56.7753C147.05 56.7088 147.236 56.6127 147.403 56.4903V56.4903ZM105.733 57.8338V58.2613L107.138 58.5463V58.1799L105.733 57.8338ZM154.345 48.9582C154.524 49.0541 154.716 49.1227 154.915 49.1618C154.915 49.1618 155.057 48.9582 155.139 48.8565C154.996 48.7462 154.839 48.6571 154.671 48.5918C154.671 48.5918 154.467 48.8565 154.304 48.9786L154.345 48.9582ZM188.544 52.48L188.931 52.2357C188.829 52.1136 188.748 51.9507 188.605 51.8896C188.463 51.8286 188.341 52.0321 188.32 52.1339C188.3 52.2357 188.422 52.3578 188.504 52.5003L188.544 52.48ZM156.055 58.8313L155.933 58.4445L155.18 58.7906L155.302 59.0756L156.055 58.8313ZM160.126 47.0651C159.841 46.8208 159.617 46.8208 159.617 46.8208C159.437 46.8797 159.276 46.985 159.149 47.1261C159.149 47.1261 159.251 47.3704 159.312 47.4926L160.126 47.0651ZM195.873 38.6781V38.2709L194.936 38.4338V38.7595L195.873 38.6781ZM199.598 37.8638C199.496 37.9656 199.354 38.0674 199.354 38.0877C199.427 38.1896 199.509 38.285 199.598 38.3727C199.598 38.3727 199.802 38.2302 199.781 38.1895C199.743 38.0382 199.682 37.8938 199.598 37.762V37.8638ZM230.602 26.8711L230.805 27.1968L231.599 26.6472L231.436 26.464L230.602 26.8711ZM129.815 10.4228C129.55 10.321 129.408 10.1989 129.286 10.2192C129.218 10.2311 129.155 10.2596 129.102 10.3023C129.048 10.345 129.007 10.4005 128.98 10.4635C128.99 10.5315 129.018 10.5957 129.061 10.6494C129.104 10.703 129.16 10.7443 129.225 10.7689C129.225 10.7689 129.449 10.6467 129.815 10.4228ZM172.157 53.3757C172.022 53.2254 171.872 53.089 171.709 52.9685C171.709 52.9685 171.424 53.1721 171.445 53.2332C171.517 53.4 171.629 53.5467 171.77 53.6607C171.908 53.5787 172.038 53.4833 172.157 53.3757V53.3757ZM144.39 52.2153L144.675 51.8489L144.228 51.5843C144.228 51.7064 144.024 51.8286 144.044 51.9507C144.065 52.0728 144.248 52.1136 144.39 52.2153V52.2153ZM200.209 48.9786L200.596 48.714C200.492 48.5803 200.369 48.4635 200.229 48.3679C200.229 48.3679 199.944 48.5308 199.944 48.6122C199.944 48.6936 200.087 48.8565 200.209 48.9786V48.9786ZM152.533 60.7448C152.431 60.6784 152.322 60.6238 152.207 60.582C152.207 60.582 152.065 60.7652 152.085 60.7856C152.171 60.8711 152.267 60.9463 152.37 61.0095L152.533 60.7448ZM152.085 62.577L151.922 62.2105L151.291 62.5973L151.414 62.8212L152.085 62.577ZM188.117 48.999C188.057 49.1157 188.009 49.2385 187.974 49.3654C187.974 49.3654 188.178 49.5079 188.219 49.4672C188.307 49.3688 188.382 49.2593 188.443 49.1415L188.117 48.999ZM207.008 38.9631C206.886 38.8206 206.804 38.617 206.703 38.617C206.634 38.6253 206.569 38.6501 206.512 38.6891C206.456 38.728 206.409 38.7801 206.377 38.8409C206.377 38.8409 206.499 39.1463 206.58 39.1463C206.662 39.1463 206.804 39.0648 206.967 38.9631H207.008ZM93.0099 42.5051C92.9015 42.6415 92.8124 42.7922 92.7452 42.953C92.7452 42.953 92.7452 43.1362 92.8674 43.2176C92.9895 43.2991 93.1727 43.0955 93.1931 42.9937C93.2134 42.8919 93.1727 42.7494 93.071 42.5051H93.0099ZM225.614 35.0342C225.39 35.0342 225.227 34.9324 225.146 35.0342C225.064 35.136 224.983 35.2581 224.902 35.3803C224.82 35.5024 225.166 35.5228 225.268 35.482C225.37 35.4413 225.512 35.2174 225.675 35.0342H225.614ZM120.593 34.1385C120.41 33.9349 120.308 33.8128 120.288 33.8128C120.165 33.8912 120.05 33.9797 119.942 34.0774C119.942 34.0774 120.125 34.3217 120.207 34.3217C120.36 34.2907 120.506 34.2283 120.634 34.1385H120.593ZM113.55 42.953L113.265 43.1158C113.334 43.2268 113.416 43.3293 113.509 43.4212C113.509 43.4212 113.733 43.3194 113.733 43.2991C113.685 43.1773 113.624 43.0612 113.55 42.953ZM159.068 52.0728C158.905 51.9303 158.803 51.7675 158.681 51.7675C158.559 51.7675 158.457 51.8896 158.335 51.9507C158.213 52.0118 158.498 52.2153 158.62 52.2561C158.742 52.2968 158.864 52.1746 159.068 52.0932V52.0728ZM109.336 54.9635H109.051C109.115 55.0667 109.19 55.1624 109.275 55.2485C109.275 55.2485 109.417 55.2485 109.499 55.0856L109.336 54.9635ZM127.657 54.0271L127.8 54.2714L128.471 53.8439L128.329 53.62L127.657 54.0271ZM173.725 53.1314C173.62 53.0417 173.503 52.9663 173.379 52.9075C173.379 52.9075 173.256 53.0296 173.195 53.0907C173.287 53.1837 173.39 53.2656 173.501 53.335C173.501 53.335 173.643 53.1925 173.765 53.0907L173.725 53.1314ZM167.088 60.7448C167.154 60.6426 167.209 60.5334 167.251 60.4191C167.251 60.4191 167.068 60.2766 167.048 60.297C166.954 60.3805 166.871 60.4763 166.803 60.582L167.088 60.7448ZM118.456 55.4724C118.456 55.4724 118.293 55.6149 118.293 55.6964C118.293 55.7778 118.395 55.8592 118.456 55.9203L118.7 55.6353L118.456 55.4724ZM126.191 61.4166C126.191 61.4166 126.191 61.213 126.049 61.1723C125.906 61.1316 125.866 61.1723 125.764 61.1723L125.927 61.5184L126.191 61.4166ZM158.335 55.7167C158.448 55.6273 158.551 55.5248 158.64 55.4114C158.64 55.4114 158.64 55.2485 158.538 55.1671C158.414 55.2427 158.298 55.3314 158.192 55.4317C158.192 55.4317 158.274 55.5946 158.335 55.7167V55.7167ZM216.616 42.5459C216.392 42.383 216.291 42.2812 216.25 42.3016C216.132 42.3776 216.023 42.4663 215.924 42.5662C215.924 42.5662 216.107 42.7698 216.209 42.7494C216.355 42.7045 216.493 42.6357 216.616 42.5459V42.5459ZM196.26 42.8716L196.463 42.5866C196.306 42.4937 196.143 42.412 195.975 42.3423C195.975 42.3423 195.852 42.4848 195.791 42.5459L196.26 42.8716ZM150.233 54.8617L150.457 54.6785L150.172 54.4546C150.172 54.4546 150.029 54.6174 150.029 54.6989C150.029 54.7803 150.151 54.8007 150.233 54.8617ZM205.42 47.5943L205.766 47.3704C205.766 47.3704 205.583 47.1058 205.542 47.1261C205.421 47.1894 205.311 47.2719 205.217 47.3704L205.42 47.5943ZM183.842 51.91C183.842 51.91 183.944 52.0932 184.025 52.1136C184.107 52.1339 184.208 52.1136 184.29 52.1136L184.046 51.7268L183.842 51.91ZM174.702 58.6074V58.8517L175.374 58.6888V58.4445L174.702 58.6074ZM148.258 63.1062C148.124 63.0449 147.979 63.0103 147.831 63.0044C147.831 63.0044 147.729 63.208 147.668 63.3302C147.817 63.3466 147.967 63.3466 148.116 63.3302C148.116 63.3302 148.197 63.1062 148.258 63.1062ZM150.294 59.3402L150.07 59.1366L149.826 59.4216C149.826 59.4216 150.009 59.5438 150.09 59.5234C150.172 59.5031 150.192 59.3402 150.253 59.2792L150.294 59.3402ZM140.808 58.4445L141.133 58.1392C141.133 58.1392 140.971 57.956 140.909 57.956C140.768 57.9758 140.631 58.017 140.502 58.0781L140.808 58.4445ZM196.667 46.4951V46.8208H197.379V46.6376L196.667 46.4951ZM136.614 60.012C136.614 60.012 136.614 59.8084 136.614 59.7881C136.614 59.7677 136.431 59.7881 136.35 59.7881L136.472 60.0934L136.614 60.012ZM201.206 51.0143C201.105 51.0143 201.023 50.7904 200.962 50.8107C200.82 50.8555 200.683 50.917 200.555 50.9939C200.555 50.9939 200.738 51.2382 200.82 51.2382C200.901 51.2382 201.064 51.0754 201.206 50.9939V51.0143ZM190.458 45.1108L190.153 44.948L189.99 45.2737C189.99 45.2737 190.193 45.2737 190.275 45.2737C190.356 45.2737 190.417 45.1922 190.458 45.1108V45.1108ZM114.71 39.6145C114.556 39.5327 114.392 39.4711 114.222 39.4313C114.222 39.4313 114.059 39.533 113.977 39.5941C113.896 39.6552 114.14 39.8588 114.242 39.8588C114.344 39.8588 114.486 39.7366 114.71 39.6145V39.6145ZM209.044 39.6145L208.799 39.472L208.657 39.818C208.657 39.818 208.86 39.818 208.922 39.818C208.983 39.818 209.003 39.6959 209.044 39.6145V39.6145ZM243.813 9.56783L243.996 9.7714C243.996 9.7714 244.159 9.6289 244.159 9.54747C244.159 9.46605 244.057 9.40498 243.996 9.34391L243.813 9.56783ZM133.438 62.4955L133.561 62.2716H133.438L133.316 62.4955H133.438ZM154.386 62.292C154.61 62.4955 154.691 62.5973 154.732 62.5973C154.874 62.5269 155.01 62.4452 155.139 62.353L154.386 62.292ZM146.08 63.493C146.08 63.493 145.958 63.3098 145.897 63.3098C145.836 63.3098 145.734 63.3098 145.653 63.4727C145.571 63.6355 145.775 63.6559 145.856 63.6559C145.938 63.6559 146.019 63.4523 146.08 63.3912V63.493ZM149.968 49.2432C149.968 49.2432 149.968 49.0193 149.968 48.9582C149.968 48.8972 149.785 48.9582 149.704 48.9582V49.345L149.968 49.2432ZM172.076 47.4926C172.076 47.4926 172.218 47.7165 172.239 47.6961C172.341 47.6321 172.437 47.557 172.524 47.4722C172.524 47.4722 172.361 47.3297 172.279 47.3297C172.198 47.3297 172.157 47.3501 172.076 47.4111V47.4926ZM163.689 56.0017L163.892 55.8185C163.892 55.8185 163.709 55.6149 163.689 55.6353C163.591 55.7134 163.502 55.8022 163.424 55.8999L163.689 56.0017ZM151.76 56.6124L151.576 56.4292C151.522 56.5063 151.474 56.5881 151.434 56.6735C151.434 56.6735 151.434 56.7753 151.434 56.6735L151.76 56.6124ZM178 56.6124L178.203 56.4088C178.203 56.4088 178.02 56.2256 178 56.2256C177.903 56.3055 177.815 56.3941 177.735 56.4903L178 56.6124ZM181.766 56.4903L181.603 56.6938C181.603 56.6938 181.766 56.816 181.847 56.6938C181.928 56.5717 181.969 56.5717 182.01 56.4903H181.766ZM194.224 51.5232L194.468 51.3807L194.326 51.1364L194 51.34L194.224 51.5232ZM169.328 51.4011C169.328 51.2789 169.328 51.1364 169.328 51.1161C169.286 51.0962 169.241 51.0859 169.195 51.0859C169.149 51.0859 169.104 51.0962 169.063 51.1161C169.063 51.1161 169.063 51.2789 169.063 51.3604L169.328 51.4011ZM235.141 31.8789H235.019L234.897 32.1232H235.019L235.141 31.8789ZM126.069 17.6291V17.8938H126.334V17.7716L126.069 17.6291ZM200.962 43.7876L201.227 43.6451L201.084 43.4008L200.738 43.6044L200.962 43.7876ZM218.856 43.4823C218.754 43.4823 218.652 43.2787 218.632 43.2991C218.508 43.3607 218.392 43.4358 218.286 43.523C218.286 43.523 218.428 43.6858 218.489 43.6655C218.618 43.618 218.741 43.5566 218.856 43.4823V43.4823ZM183.72 43.3194L183.557 43.0955C183.557 43.0955 183.374 43.2176 183.374 43.2787C183.374 43.3398 183.476 43.4416 183.537 43.523L183.72 43.3194ZM227.1 39.2481C227.1 39.2481 226.897 39.2481 226.856 39.3906C226.815 39.533 226.856 39.5534 226.856 39.6348C226.856 39.7163 227.059 39.6348 227.1 39.4923C227.141 39.3498 227.141 39.2888 227.1 39.2073V39.2481ZM202.367 37.5992L202.082 37.762C202.149 37.8622 202.231 37.9514 202.326 38.0266C202.326 38.0266 202.468 38.0266 202.55 37.9045L202.367 37.5992ZM163.689 60.9077V60.7856H163.444V60.9077H163.689ZM116.868 57.732V57.5895H116.603V57.732H116.868ZM190.417 36.9477L190.193 37.0902C190.193 37.0902 190.193 37.2938 190.315 37.2938C190.397 37.2678 190.473 37.2263 190.539 37.1717L190.417 36.9477ZM208.962 35.706C208.962 35.706 208.962 35.706 208.962 35.6042C208.962 35.5024 208.962 35.6042 208.82 35.6042L208.983 35.7874L208.962 35.706ZM223.212 33.3853V33.5074H223.456V33.3853H223.212ZM212.545 33.2224C212.545 33.2224 212.403 33.0799 212.341 33.0799C212.28 33.0799 212.199 33.0799 212.118 33.2428C212.036 33.4056 212.26 33.3853 212.321 33.3853C212.382 33.3853 212.382 33.2835 212.545 33.2224ZM228.362 30.7796C228.362 30.7796 228.22 30.6371 228.159 30.6371C228.098 30.6371 227.996 30.6371 227.914 30.7593C228.001 30.8383 228.097 30.9066 228.199 30.9628C228.199 30.9628 228.22 30.8407 228.281 30.7796H228.362ZM227.406 28.0518L227.568 27.8482C227.568 27.8482 227.406 27.7261 227.344 27.8482C227.283 27.9704 227.222 27.9704 227.182 28.0518H227.406ZM128.919 26.2604V26.1383L128.716 26.2604V26.3826L128.919 26.2604ZM123.81 19.1966H123.932L123.769 19.0134H123.667L123.81 19.1966ZM240.271 7.45072C240.267 7.52532 240.267 7.60006 240.271 7.67465H240.393C240.397 7.60005 240.397 7.52532 240.393 7.45072H240.271ZM164.462 48.6325L164.645 48.8158H164.747L164.462 48.6325ZM200.657 46.0676L200.901 45.9454C200.901 45.9454 200.901 45.7622 200.758 45.7622C200.616 45.7622 200.596 45.7622 200.514 45.8844L200.657 46.0676ZM95.8395 52.3375V52.6021H96.3484V52.4393L95.8395 52.3375ZM191.069 38.6781V38.9223L191.639 38.7595V38.5356L191.069 38.6781ZM175.455 45.8437C175.455 45.8437 175.312 45.7215 175.231 45.7012C175.15 45.6808 175.231 45.8029 175.089 45.864C174.946 45.9251 175.231 45.9862 175.312 46.0065C175.394 46.0269 175.414 45.8437 175.455 45.7826V45.8437ZM214.621 43.808L214.459 44.0115L214.642 43.8487L214.621 43.808ZM176.188 50.2814V50.1593H175.964C175.964 50.1593 175.964 50.2611 175.964 50.3018C175.964 50.3425 176.127 50.2814 176.188 50.2814ZM126.761 51.4011V51.2586H126.517C126.517 51.2586 126.517 51.2586 126.517 51.3807L126.761 51.4011ZM177.145 55.7981L177.307 55.4724C177.307 55.4724 177.104 55.3503 177.043 55.4724C176.946 55.553 176.863 55.6494 176.798 55.7574L177.145 55.7981ZM146.182 49.9557L145.978 49.8336C146.006 49.9043 146.04 49.9725 146.08 50.0372L146.182 49.9557ZM142.457 62.353L142.314 62.4752H142.436L142.457 62.353ZM135.474 62.7194C135.474 62.7194 135.474 62.7195 135.474 62.8416C135.474 62.9637 135.474 62.8416 135.576 62.8416V62.638L135.474 62.7194ZM90.6892 51.4214L90.9131 51.6046C90.9553 51.534 90.9895 51.4589 91.0149 51.3807C91.0149 51.3807 91.0149 51.3807 90.9131 51.3807L90.6892 51.4214ZM92.4195 51.1161V51.0143V51.1161ZM97.183 47.3093C97.1908 47.2349 97.1908 47.1599 97.183 47.0854C97.1605 47.0759 97.1363 47.071 97.1118 47.071C97.0873 47.071 97.0631 47.0759 97.0405 47.0854C97.0338 47.1599 97.0338 47.2349 97.0405 47.3093H97.183ZM90.8928 49.1415H90.9946H90.8928ZM138.853 51.1771H138.609V51.2993H138.853V51.1771ZM169.796 59.6049V59.4827L169.633 59.6049C169.633 59.6049 169.633 59.6049 169.755 59.6049C169.877 59.6049 169.796 59.6252 169.796 59.6049ZM183.496 40.0827V40.2048H183.598L183.496 40.0827ZM218.102 32.286L218.225 32.0825L218.041 31.9603C218.041 31.9603 218.041 31.9603 218.041 32.0825C218.015 32.1483 217.994 32.2164 217.98 32.286H218.102ZM93.2745 36.3574V36.4592H93.3763L93.2745 36.3574ZM153.388 36.9884V36.8663C153.388 36.8663 153.286 36.8663 153.266 36.8663C153.246 36.8663 153.266 36.8663 153.266 36.9884H153.388ZM143.332 38.1284L143.169 38.2709H143.332V38.1284ZM165.724 37.1106L165.541 37.2938L165.724 37.1106ZM211.324 37.6195H211.446V37.4974L211.324 37.6195ZM128.248 28.2554V28.4997C128.248 28.4997 128.41 28.2961 128.37 28.235L128.248 28.2554ZM93.1117 46.5765H92.9895V46.6783L93.1117 46.5765ZM173.867 45.6604V45.5587C173.867 45.5587 173.867 45.5587 173.765 45.5587C173.765 45.5587 173.867 45.6401 173.867 45.6604ZM165.826 45.3347L165.643 45.4976C165.643 45.4976 165.643 45.4976 165.765 45.4976H165.908L165.826 45.3347Z" fill="black"/>
<path d="M85.5389 38.5355C84.3175 39.1462 83.0961 39.7366 81.8747 40.3677C80.7291 40.9437 79.7642 41.8241 79.0858 42.9123C78.7939 43.4116 78.4062 43.8485 77.9451 44.1978C77.484 44.5472 76.9585 44.8021 76.3987 44.9479C72.9177 45.9251 69.4367 46.8208 65.976 47.7572C65.345 47.92 64.4493 48.2865 64.0829 47.5333C63.7164 46.78 64.6529 46.2915 65.1821 45.864C65.7069 45.4372 66.281 45.075 66.8921 44.7851C70.0474 43.2583 73.2434 41.813 76.3987 40.3066C77.1019 39.9276 77.9106 39.7917 78.699 39.9198C79.8657 40.0623 81.0483 39.8569 82.0986 39.3295C83.035 38.9427 83.9715 38.5966 84.9079 38.2505L85.5389 38.5355Z" fill="black"/>
<path d="M85.5389 38.5356L84.9282 38.2302C85.4168 38.0674 88.7146 36.3778 89.1828 36.1945C89.1828 36.337 90.1599 36.6628 90.221 36.8053L85.5389 38.5356Z" fill="black"/>
<path d="M10.92 121.224C10.584 121.224 10.3227 121.149 10.136 121C9.94933 120.888 9.89333 120.72 9.968 120.496C10.1173 119.936 10.6773 119.544 11.648 119.32C13.1787 119.021 14.3173 118.611 15.064 118.088C15.8107 117.565 16.352 116.725 16.688 115.568L24.472 90.48C24.7707 89.5093 24.92 88.8 24.92 88.352C24.92 87.7547 24.64 87.3627 24.08 87.176C23.5573 86.952 22.568 86.84 21.112 86.84C19.32 86.84 17.4533 87.176 15.512 87.848C13.5707 88.52 11.9467 89.4533 10.64 90.648C9.33333 91.8053 8.68 93.0747 8.68 94.456C8.68 95.8373 8.92267 96.808 9.408 97.368C9.93067 97.8907 10.808 98.2453 12.04 98.432C12.6 98.5067 13.0293 98.7307 13.328 99.104C13.664 99.4773 13.832 99.9253 13.832 100.448C13.832 101.12 13.552 101.717 12.992 102.24C12.432 102.763 11.6293 103.024 10.584 103.024C8.97867 103.024 7.65333 102.389 6.608 101.12C5.6 99.8133 5.096 98.32 5.096 96.64C5.096 94.1387 5.89867 91.9733 7.504 90.144C9.14667 88.3147 11.5547 86.896 14.728 85.888C17.9013 84.88 21.7653 84.376 26.32 84.376C27.0293 84.376 28.168 84.4133 29.736 84.488C31.1173 84.488 32.2 84.4693 32.984 84.432L37.24 84.376C37.9867 84.376 38.304 84.6373 38.192 85.16C38.08 85.4587 37.8933 85.7013 37.632 85.888C37.3707 86.0373 36.9787 86.168 36.456 86.28C34.888 86.6907 33.768 87.1573 33.096 87.68C32.4613 88.1653 31.9573 89.0053 31.584 90.2L24.192 114.168C23.856 115.288 23.688 116.165 23.688 116.8C23.688 117.472 23.8747 117.995 24.248 118.368C24.6587 118.704 25.312 118.984 26.208 119.208C26.9547 119.395 27.44 119.581 27.664 119.768C27.888 119.917 27.944 120.141 27.832 120.44C27.72 120.925 27.2533 121.168 26.432 121.168C25.5733 121.168 24.2107 121.131 22.344 121.056C20.6267 120.981 19.3947 120.944 18.648 120.944C17.9013 120.944 16.6693 120.981 14.952 121.056C13.608 121.168 12.264 121.224 10.92 121.224ZM36.3431 121.784C35.6338 121.784 34.9618 121.467 34.3271 120.832C33.7298 120.197 33.4311 119.544 33.4311 118.872C33.4311 118.573 33.4871 118.237 33.5991 117.864L43.5111 89.136C43.7725 88.352 43.9031 87.68 43.9031 87.12C43.9031 86.448 43.6605 85.944 43.1751 85.608C42.8018 85.384 42.3165 84.9733 41.7191 84.376C41.5698 84.2267 41.4951 84.0587 41.4951 83.872C41.4951 83.6853 41.5885 83.5547 41.7751 83.48C42.8578 83.144 43.8845 82.8827 44.8551 82.696L47.0951 82.08C47.7671 81.9307 48.4765 81.8 49.2231 81.688C50.0071 81.5387 50.6231 81.4453 51.0711 81.408C51.2578 81.408 51.4258 81.52 51.5751 81.744C51.7245 81.968 51.7805 82.192 51.7431 82.416C51.5938 83.1253 51.3885 83.8347 51.1271 84.544L40.5431 114.84C40.4311 115.213 40.3751 115.568 40.3751 115.904C40.3751 116.427 40.5805 116.688 40.9911 116.688C41.5138 116.688 42.2605 116.277 43.2311 115.456C44.2391 114.597 45.1911 113.645 46.0871 112.6C46.3858 112.152 46.6471 111.928 46.8711 111.928C47.2071 111.928 47.3751 112.208 47.3751 112.768C47.3751 113.776 46.7031 115.008 45.3591 116.464C44.0151 117.883 42.4471 119.133 40.6551 120.216C38.9005 121.261 37.4631 121.784 36.3431 121.784ZM98.0731 95.856C97.4011 95.856 97.0651 95.3893 97.0651 94.456C97.0651 94.1573 97.0837 93.9333 97.1211 93.784C97.1957 93.112 97.2331 92.6267 97.2331 92.328C97.2331 90.76 96.8597 89.4347 96.1131 88.352C95.5904 87.568 94.8251 86.9333 93.8171 86.448C92.8464 85.9253 91.7637 85.664 90.5691 85.664C87.9184 85.664 85.3984 86.504 83.0091 88.184C80.6571 89.864 78.6224 92.2347 76.9051 95.296C75.2251 98.3573 74.0304 101.867 73.3211 105.824C73.1344 106.869 73.0411 107.803 73.0411 108.624C73.0411 110.827 73.4891 112.787 74.3851 114.504C75.3184 116.221 76.5504 117.565 78.0811 118.536C79.6491 119.469 81.3477 119.936 83.1771 119.936C84.3717 119.936 85.4357 119.619 86.3691 118.984C87.3024 118.349 88.0304 117.509 88.5531 116.464L89.8971 112.096L90.7371 109.128C90.8117 108.755 90.8491 108.493 90.8491 108.344C90.8491 107.672 90.5131 107.205 89.8411 106.944C89.4304 106.795 88.4037 106.533 86.7611 106.16C85.8651 105.899 85.4171 105.581 85.4171 105.208C85.4171 104.947 85.5664 104.723 85.8651 104.536C86.2011 104.349 86.5931 104.256 87.0411 104.256C87.9371 104.256 89.2811 104.331 91.0731 104.48C92.8651 104.629 94.1531 104.704 94.9371 104.704C95.5344 104.704 96.4304 104.629 97.6251 104.48C99.0437 104.331 100.294 104.256 101.377 104.256C101.638 104.256 101.844 104.331 101.993 104.48C102.18 104.592 102.273 104.741 102.273 104.928C102.273 105.6 101.75 106.029 100.705 106.216C99.6971 106.44 98.9317 106.739 98.4091 107.112C97.9237 107.485 97.4944 108.064 97.1211 108.848L96.8411 109.52H96.8971L94.0411 118.872C92.8091 122.792 91.6144 125.872 90.4571 128.112C89.3371 130.352 88.1237 132.125 86.8171 133.432C84.2784 135.971 81.4411 137.24 78.3051 137.24C76.2891 137.24 74.7957 136.96 73.8251 136.4C72.8544 135.877 72.3691 135.205 72.3691 134.384C72.3691 133.488 72.5184 132.741 72.8171 132.144C73.1531 131.584 73.5637 131.304 74.0491 131.304C74.3477 131.304 74.6651 131.416 75.0011 131.64C75.3371 131.901 75.6917 132.2 76.0651 132.536C76.4757 132.909 76.7931 133.189 77.0171 133.376C77.6891 133.973 78.2864 134.44 78.8091 134.776C79.3317 135.112 79.8357 135.28 80.3211 135.28C81.2544 135.28 82.0944 134.627 82.8411 133.32C83.5877 132.013 84.4651 129.699 85.4731 126.376L87.0971 121.168C85.1557 121.579 83.5131 121.784 82.1691 121.784C79.0704 121.784 76.3077 121.224 73.8811 120.104C71.4544 118.947 69.5504 117.285 68.1691 115.12C66.8251 112.917 66.1531 110.304 66.1531 107.28C66.1531 106.272 66.2837 104.984 66.5451 103.416C67.0677 99.7947 68.4491 96.4907 70.6891 93.504C72.9664 90.5173 75.8971 88.1653 79.4811 86.448C83.0651 84.6933 86.9851 83.816 91.2411 83.816C92.3611 83.816 93.3504 83.928 94.2091 84.152C95.1051 84.3387 96.0571 84.6 97.0651 84.936C97.2891 85.0107 97.6997 85.16 98.2971 85.384C98.9317 85.608 99.4917 85.72 99.9771 85.72C100.388 85.72 100.854 85.5893 101.377 85.328C101.937 84.9547 102.422 84.768 102.833 84.768C103.244 84.768 103.449 84.9547 103.449 85.328C103.449 85.552 103.374 85.7573 103.225 85.944C102.553 86.84 101.806 88.1653 100.985 89.92C100.201 91.6747 99.6224 93.224 99.2491 94.568C99.0624 95.4267 98.6704 95.856 98.0731 95.856ZM109.995 121.784C108.763 121.784 107.587 121.467 106.467 120.832C105.384 120.16 104.507 119.264 103.835 118.144C103.2 117.024 102.883 115.773 102.883 114.392C102.883 111.965 103.536 109.408 104.843 106.72C106.187 103.995 108.016 101.717 110.331 99.888C112.683 98.0213 115.315 97.088 118.227 97.088C120.504 97.088 122.315 97.7787 123.659 99.16C125.04 100.541 125.731 102.371 125.731 104.648C125.731 107.037 125.078 109.576 123.771 112.264C122.464 114.952 120.598 117.211 118.171 119.04C115.782 120.869 113.056 121.784 109.995 121.784ZM111.059 119.768C112.291 119.768 113.579 118.741 114.923 116.688C116.267 114.635 117.387 112.189 118.283 109.352C119.216 106.477 119.683 103.939 119.683 101.736C119.683 99.944 118.992 99.048 117.611 99.048C116.491 99.048 115.24 100.056 113.859 102.072C112.478 104.051 111.302 106.459 110.331 109.296C109.398 112.133 108.931 114.691 108.931 116.968C108.931 118.835 109.64 119.768 111.059 119.768ZM131.927 121.84C131.367 121.84 130.751 121.523 130.079 120.888C129.407 120.253 129.071 119.544 129.071 118.76C129.071 118.424 129.127 118.125 129.239 117.864L135.175 103.192C135.361 102.707 135.455 102.333 135.455 102.072C135.455 101.661 135.249 101.456 134.839 101.456C134.129 101.456 133.401 101.587 132.655 101.848C131.945 102.109 131.217 102.707 130.471 103.64C130.284 103.827 130.097 103.92 129.911 103.92C129.799 103.92 129.687 103.864 129.575 103.752C129.463 103.64 129.407 103.491 129.407 103.304C129.407 102.968 129.612 102.464 130.023 101.792C130.433 101.12 130.825 100.56 131.199 100.112C133.103 98.1333 135.473 97.1253 138.311 97.088C139.132 97.088 139.785 97.3493 140.271 97.872C140.793 98.3947 141.055 99.0293 141.055 99.776C141.055 100.187 140.961 100.635 140.775 101.12L137.583 109.184L137.527 109.352C137.527 109.539 137.657 109.632 137.919 109.632C138.143 109.632 138.311 109.539 138.423 109.352C143.089 101.176 147.308 97.088 151.079 97.088C152.348 97.088 153.3 97.48 153.935 98.264C154.607 99.048 154.943 100.056 154.943 101.288C154.943 102.408 154.737 103.397 154.327 104.256L149.791 114.896C149.604 115.344 149.511 115.755 149.511 116.128C149.511 116.539 149.697 116.744 150.071 116.744C150.593 116.744 151.433 116.333 152.591 115.512C153.785 114.691 154.625 114.037 155.111 113.552C155.484 113.179 155.745 112.992 155.895 112.992C156.007 112.992 156.119 113.067 156.231 113.216C156.343 113.328 156.399 113.459 156.399 113.608C156.399 114.168 156.212 114.691 155.839 115.176C154.196 117.117 152.329 118.704 150.239 119.936C148.185 121.168 146.244 121.784 144.415 121.784C143.817 121.784 143.257 121.541 142.735 121.056C142.212 120.608 141.951 120.104 141.951 119.544C141.951 119.283 141.988 119.077 142.063 118.928C143.556 115.605 144.471 113.571 144.807 112.824C146.524 109.203 147.943 105.955 149.063 103.08C149.324 102.333 149.455 101.736 149.455 101.288C149.455 100.653 149.175 100.336 148.615 100.336C147.98 100.299 147.252 100.728 146.431 101.624C145.609 102.483 144.508 103.845 143.127 105.712C142.417 106.683 141.204 108.549 139.487 111.312C137.769 114.037 136.257 116.539 134.951 118.816C134.391 119.787 133.868 120.533 133.383 121.056C132.897 121.579 132.412 121.84 131.927 121.84ZM180.714 114.672C180.564 115.269 180.49 115.643 180.49 115.792C180.49 116.315 180.658 116.576 180.994 116.576C181.516 116.576 182.3 116.203 183.346 115.456C184.391 114.709 185.324 113.869 186.146 112.936C186.258 112.787 186.37 112.712 186.482 112.712C186.855 112.712 187.042 112.955 187.042 113.44C187.042 114.261 186.407 115.344 185.138 116.688C183.906 118.032 182.468 119.227 180.826 120.272C179.22 121.28 177.914 121.784 176.906 121.784C176.122 121.784 175.375 121.467 174.666 120.832C173.956 120.197 173.602 119.544 173.602 118.872C173.602 118.573 173.676 118.107 173.826 117.472C174.946 114.448 175.543 112.936 175.618 112.936C175.618 112.749 175.562 112.637 175.45 112.6C175.338 112.563 175.226 112.637 175.114 112.824C172.538 115.96 170.279 118.237 168.338 119.656C166.396 121.075 164.548 121.784 162.794 121.784C161.562 121.784 160.554 121.373 159.77 120.552C158.986 119.693 158.594 118.611 158.594 117.304C158.594 115.251 159.21 112.899 160.442 110.248C161.674 107.56 163.316 105.021 165.37 102.632C166.9 100.803 168.431 99.4027 169.962 98.432C171.53 97.4613 172.967 96.976 174.274 96.976C174.983 96.976 175.58 97.1067 176.066 97.368C176.588 97.592 177.41 98.0587 178.53 98.768C179.164 99.1413 179.519 99.328 179.594 99.328C179.668 99.328 179.724 99.2907 179.762 99.216C179.836 99.104 179.892 98.992 179.93 98.88L182.954 89.08C183.364 87.7733 183.57 87.0453 183.57 86.896C183.57 86.448 183.402 86.056 183.066 85.72C182.767 85.384 182.244 85.0667 181.498 84.768C180.9 84.544 180.527 84.3947 180.378 84.32C180.228 84.208 180.154 84.0773 180.154 83.928C180.154 83.6667 180.284 83.4613 180.546 83.312C180.807 83.1627 181.255 82.9947 181.89 82.808C182.898 82.5467 184.335 82.2667 186.202 81.968C188.106 81.632 189.282 81.464 189.73 81.464C190.514 81.464 190.906 81.7253 190.906 82.248C190.906 82.7707 190.775 83.4053 190.514 84.152L180.714 114.672ZM166.658 117.248C168.039 117.248 169.644 116.408 171.474 114.728C173.303 113.048 174.871 111.051 176.178 108.736C177.522 106.384 178.194 104.349 178.194 102.632C178.194 101.624 177.97 100.84 177.522 100.28C177.111 99.72 176.495 99.44 175.674 99.44C174.479 99.44 173.023 100.392 171.306 102.296C169.588 104.163 168.095 106.365 166.826 108.904C165.556 111.405 164.922 113.533 164.922 115.288C164.922 115.96 165.052 116.464 165.314 116.8C165.612 117.099 166.06 117.248 166.658 117.248ZM175.562 113.16V113.104V113.16ZM197.003 121.784C195.771 121.784 194.595 121.467 193.475 120.832C192.392 120.16 191.515 119.264 190.843 118.144C190.208 117.024 189.891 115.773 189.891 114.392C189.891 111.965 190.544 109.408 191.851 106.72C193.195 103.995 195.024 101.717 197.339 99.888C199.691 98.0213 202.323 97.088 205.235 97.088C207.512 97.088 209.323 97.7787 210.667 99.16C212.048 100.541 212.739 102.371 212.739 104.648C212.739 107.037 212.085 109.576 210.779 112.264C209.472 114.952 207.605 117.211 205.179 119.04C202.789 120.869 200.064 121.784 197.003 121.784ZM198.067 119.768C199.299 119.768 200.587 118.741 201.931 116.688C203.275 114.635 204.395 112.189 205.291 109.352C206.224 106.477 206.691 103.939 206.691 101.736C206.691 99.944 206 99.048 204.619 99.048C203.499 99.048 202.248 100.056 200.867 102.072C199.485 104.051 198.309 106.459 197.339 109.296C196.405 112.133 195.939 114.691 195.939 116.968C195.939 118.835 196.648 119.768 198.067 119.768ZM215.937 121.784C215.228 121.784 214.556 121.467 213.921 120.832C213.324 120.197 213.025 119.544 213.025 118.872C213.025 118.573 213.081 118.237 213.193 117.864L223.105 89.136C223.366 88.352 223.497 87.68 223.497 87.12C223.497 86.448 223.254 85.944 222.769 85.608C222.396 85.384 221.91 84.9733 221.313 84.376C221.164 84.2267 221.089 84.0587 221.089 83.872C221.089 83.6853 221.182 83.5547 221.369 83.48C222.452 83.144 223.478 82.8827 224.449 82.696L226.689 82.08C227.361 81.9307 228.07 81.8 228.817 81.688C229.601 81.5387 230.217 81.4453 230.665 81.408C230.852 81.408 231.02 81.52 231.169 81.744C231.318 81.968 231.374 82.192 231.337 82.416C231.188 83.1253 230.982 83.8347 230.721 84.544L220.137 114.84C220.025 115.213 219.969 115.568 219.969 115.904C219.969 116.427 220.174 116.688 220.585 116.688C221.108 116.688 221.854 116.277 222.825 115.456C223.833 114.597 224.785 113.645 225.681 112.6C225.98 112.152 226.241 111.928 226.465 111.928C226.801 111.928 226.969 112.208 226.969 112.768C226.969 113.776 226.297 115.008 224.953 116.464C223.609 117.883 222.041 119.133 220.249 120.216C218.494 121.261 217.057 121.784 215.937 121.784ZM233.729 121.784C232.945 121.784 232.254 121.504 231.657 120.944C231.059 120.384 230.761 119.787 230.761 119.152C230.761 118.704 230.835 118.331 230.985 118.032C232.03 115.717 233.598 111.984 235.689 106.832L237.033 103.528C237.107 103.229 237.033 103.08 236.809 103.08C236.137 103.08 234.849 103.696 232.945 104.928C232.683 105.077 232.478 105.152 232.329 105.152C231.881 105.152 231.657 105.021 231.657 104.76C231.657 104.312 232.198 103.584 233.281 102.576C234.401 101.531 235.726 100.504 237.257 99.496C238.787 98.4507 240.15 97.6853 241.345 97.2C241.569 97.1253 241.737 97.088 241.849 97.088C242.483 97.088 243.081 97.3867 243.641 97.984C244.201 98.544 244.387 99.048 244.201 99.496L237.761 115.232C237.611 115.493 237.537 115.867 237.537 116.352C237.537 116.501 237.593 116.632 237.705 116.744C237.817 116.819 237.929 116.856 238.041 116.856C238.563 116.856 239.422 116.408 240.617 115.512C241.811 114.616 242.913 113.664 243.921 112.656C244.033 112.544 244.107 112.488 244.145 112.488C244.294 112.488 244.425 112.563 244.537 112.712C244.649 112.824 244.705 112.955 244.705 113.104C244.705 113.963 244.051 115.101 242.745 116.52C241.438 117.901 239.907 119.133 238.153 120.216C236.435 121.261 234.961 121.784 233.729 121.784ZM244.425 92.608C243.678 92.608 243.043 92.328 242.521 91.768C242.035 91.208 241.793 90.5547 241.793 89.808C241.793 88.6507 242.185 87.6427 242.969 86.784C243.79 85.888 244.798 85.44 245.993 85.44C246.739 85.44 247.337 85.7573 247.785 86.392C248.27 86.9893 248.513 87.6987 248.513 88.52C248.513 89.6027 248.102 90.5547 247.281 91.376C246.459 92.1973 245.507 92.608 244.425 92.608ZM253.751 121.84C252.818 121.84 251.829 121.541 250.783 120.944C249.775 120.309 248.917 119.488 248.207 118.48C247.535 117.472 247.199 116.427 247.199 115.344C247.199 112.507 247.909 109.669 249.327 106.832C250.783 103.957 252.669 101.624 254.983 99.832C257.298 98.0027 259.687 97.088 262.151 97.088C263.943 97.088 265.306 97.4427 266.239 98.152C267.173 98.8613 267.639 99.776 267.639 100.896C267.639 103.099 266.407 104.816 263.943 106.048C261.517 107.243 258.399 108.232 254.591 109.016C254.255 109.053 254.031 109.221 253.919 109.52C253.546 110.752 253.341 111.76 253.303 112.544C253.266 113.925 253.583 115.045 254.255 115.904C254.927 116.725 255.879 117.136 257.111 117.136C258.157 117.136 259.127 116.875 260.023 116.352C260.919 115.829 261.797 115.101 262.655 114.168C263.029 113.757 263.365 113.552 263.663 113.552C263.999 113.552 264.167 113.739 264.167 114.112C264.167 114.448 264.111 114.672 263.999 114.784C262.842 116.912 261.386 118.629 259.631 119.936C257.914 121.205 255.954 121.84 253.751 121.84ZM254.983 107.28C256.962 106.869 258.773 106.141 260.415 105.096C262.058 104.051 262.879 102.557 262.879 100.616C262.879 100.168 262.73 99.776 262.431 99.44C262.17 99.0667 261.815 98.88 261.367 98.88C260.471 98.88 259.519 99.328 258.511 100.224C257.503 101.083 256.626 102.147 255.879 103.416C255.133 104.685 254.703 105.861 254.591 106.944V107.056C254.591 107.205 254.722 107.28 254.983 107.28ZM271.906 121.84C271.383 121.84 270.804 121.616 270.17 121.168C269.572 120.757 269.274 120.272 269.274 119.712C269.274 119.115 269.498 118.237 269.946 117.08L275.434 102.8C275.546 102.501 275.602 102.24 275.602 102.016C275.602 101.531 275.378 101.288 274.93 101.288C274.295 101.288 273.772 101.4 273.362 101.624C272.951 101.811 272.428 102.109 271.794 102.52C271.57 102.669 271.383 102.744 271.234 102.744C270.898 102.744 270.711 102.557 270.674 102.184C270.636 101.587 270.879 100.971 271.402 100.336C271.962 99.664 272.69 99.0667 273.586 98.544C274.295 98.096 275.06 97.7413 275.882 97.48C276.74 97.2187 277.562 97.088 278.346 97.088C280.138 97.088 281.034 97.9653 281.034 99.72C281.034 100.728 280.735 101.941 280.138 103.36L277.842 108.904C277.804 108.941 277.786 109.016 277.786 109.128C277.786 109.315 277.879 109.408 278.066 109.408C278.252 109.408 278.402 109.296 278.514 109.072C283.106 101.008 287.026 96.976 290.274 96.976C291.319 96.976 292.122 97.2933 292.682 97.928C293.279 98.5253 293.578 99.3093 293.578 100.28C293.578 101.139 293.372 101.997 292.962 102.856C292.588 103.715 292.103 104.424 291.506 104.984C290.946 105.507 290.386 105.768 289.826 105.768C289.452 105.768 289.154 105.6 288.93 105.264C288.743 104.891 288.612 104.331 288.538 103.584C288.351 102.091 287.884 101.344 287.138 101.344C286.615 101.344 286.036 101.699 285.402 102.408C284.767 103.08 283.983 104.144 283.05 105.6C282.415 106.533 281.37 108.213 279.914 110.64C278.458 113.029 277.151 115.232 275.994 117.248C275.135 118.779 274.37 119.936 273.698 120.72C273.063 121.467 272.466 121.84 271.906 121.84ZM297.994 121.84C297.06 121.84 296.071 121.541 295.026 120.944C294.018 120.309 293.159 119.488 292.45 118.48C291.778 117.472 291.442 116.427 291.442 115.344C291.442 112.507 292.151 109.669 293.57 106.832C295.026 103.957 296.911 101.624 299.226 99.832C301.54 98.0027 303.93 97.088 306.394 97.088C308.186 97.088 309.548 97.4427 310.482 98.152C311.415 98.8613 311.882 99.776 311.882 100.896C311.882 103.099 310.65 104.816 308.186 106.048C305.759 107.243 302.642 108.232 298.834 109.016C298.498 109.053 298.274 109.221 298.162 109.52C297.788 110.752 297.583 111.76 297.546 112.544C297.508 113.925 297.826 115.045 298.498 115.904C299.17 116.725 300.122 117.136 301.354 117.136C302.399 117.136 303.37 116.875 304.266 116.352C305.162 115.829 306.039 115.101 306.898 114.168C307.271 113.757 307.607 113.552 307.906 113.552C308.242 113.552 308.41 113.739 308.41 114.112C308.41 114.448 308.354 114.672 308.242 114.784C307.084 116.912 305.628 118.629 303.874 119.936C302.156 121.205 300.196 121.84 297.994 121.84ZM299.226 107.28C301.204 106.869 303.015 106.141 304.658 105.096C306.3 104.051 307.122 102.557 307.122 100.616C307.122 100.168 306.972 99.776 306.674 99.44C306.412 99.0667 306.058 98.88 305.61 98.88C304.714 98.88 303.762 99.328 302.754 100.224C301.746 101.083 300.868 102.147 300.122 103.416C299.375 104.685 298.946 105.861 298.834 106.944V107.056C298.834 107.205 298.964 107.28 299.226 107.28Z" fill="black"/>
</svg>
