<svg width="178" height="42" viewBox="0 0 178 42" fill="none" xmlns="http://www.w3.org/2000/svg">
<path fill-rule="evenodd" clip-rule="evenodd" d="M32.6283 12.9739C34.3892 12.9739 35.8168 11.5464 35.8168 9.78541C35.8168 8.02446 34.3892 6.59692 32.6283 6.59692C30.8673 6.59692 29.4398 8.02446 29.4398 9.78541C29.4398 10.3264 29.5745 10.8359 29.8122 11.2822L22.843 18.2514L24.0869 19.4953L31.0346 12.5476C31.5035 12.8187 32.0478 12.9739 32.6283 12.9739Z" fill="url(#paint0_linear_119_32)"/>
<path fill-rule="evenodd" clip-rule="evenodd" d="M37.686 27.4868C40.9042 27.4868 43.5132 24.8779 43.5132 21.6596C43.5132 18.4413 40.9042 15.8324 37.686 15.8324C34.7825 15.8324 32.3751 17.9558 31.9318 20.7344L23.2827 20.6701L23.2697 22.4292L31.918 22.4935C32.3225 25.3168 34.7508 27.4868 37.686 27.4868Z" fill="url(#paint1_linear_119_32)"/>
<path fill-rule="evenodd" clip-rule="evenodd" d="M25.2618 34.3037L22.4031 24.6283L20.7161 25.1267L23.5541 34.7323C22.603 35.2841 21.9634 36.3135 21.9634 37.4922C21.9634 39.2531 23.3909 40.6807 25.1519 40.6807C26.9128 40.6807 28.3404 39.2531 28.3404 37.4922C28.3404 35.7661 26.9688 34.3604 25.2561 34.3054L25.2618 34.3037Z" fill="url(#paint2_linear_119_32)"/>
<path fill-rule="evenodd" clip-rule="evenodd" d="M11.6518 27.6289L17.3455 23.9687L16.3942 22.4889L10.7568 26.1129C9.68826 24.8042 8.06211 23.9686 6.2408 23.9686C3.02251 23.9686 0.413574 26.5776 0.413574 29.7959C0.413574 33.0142 3.02251 35.6231 6.2408 35.6231C9.45909 35.6231 12.068 33.0142 12.068 29.7959C12.068 29.0301 11.9203 28.2988 11.6518 27.6289Z" fill="url(#paint3_linear_119_32)"/>
<path fill-rule="evenodd" clip-rule="evenodd" d="M7.44981 17.32C7.45015 17.3007 7.45033 17.2813 7.45033 17.2618C7.45033 15.5009 6.0228 14.0734 4.26185 14.0734C2.5009 14.0734 1.07336 15.5009 1.07336 17.2618C1.07336 19.0228 2.5009 20.4503 4.26185 20.4503C5.38004 20.4503 6.3638 19.8747 6.93297 19.0036L16.0262 21.3298L16.4621 19.6255L7.44981 17.32Z" fill="url(#paint4_linear_119_32)"/>
<path fill-rule="evenodd" clip-rule="evenodd" d="M16.0574 11.6817C17.3795 10.6134 18.2251 8.97875 18.2251 7.14656C18.2251 3.92827 15.6162 1.31934 12.3979 1.31934C9.17962 1.31934 6.57068 3.92827 6.57068 7.14656C6.57068 10.3648 9.17962 12.9738 12.3979 12.9738C13.1534 12.9738 13.8754 12.83 14.5379 12.5683L17.7853 18.2513L19.3127 17.3785L16.0574 11.6817Z" fill="url(#paint5_linear_119_32)"/>
<circle cx="20.0942" cy="20.7801" r="4.50785" fill="url(#paint6_radial_119_32)"/>
<path d="M67.253 9.14241C67.6225 9.14241 67.9098 9.26555 68.115 9.51183C68.3203 9.73759 68.4229 10.0454 68.4229 10.4354V29.8609C68.4229 30.2509 68.31 30.569 68.0842 30.8153C67.879 31.041 67.5814 31.1539 67.1915 31.1539C66.8015 31.1539 66.4629 30.9795 66.1755 30.6306L53.3996 13.5447V29.8609C53.3996 30.2509 53.2867 30.569 53.061 30.8153C52.8558 31.041 52.5684 31.1539 52.199 31.1539C51.8296 31.1539 51.5422 31.041 51.337 30.8153C51.1318 30.569 51.0292 30.2509 51.0292 29.8609V10.4354C51.0292 10.0454 51.1318 9.73759 51.337 9.51183C51.5628 9.26555 51.8706 9.14241 52.2606 9.14241C52.671 9.14241 53.0199 9.31686 53.3073 9.66576L66.0524 26.7516V10.4354C66.0524 10.0454 66.155 9.73759 66.3603 9.51183C66.586 9.26555 66.8836 9.14241 67.253 9.14241ZM85.0241 27.5213C85.2499 27.5213 85.4448 27.6136 85.609 27.7983C85.7732 27.983 85.8553 28.2191 85.8553 28.5064C85.8553 29.0195 85.4962 29.4915 84.7778 29.9225C84.039 30.3535 83.2591 30.6819 82.4381 30.9076C81.6172 31.1129 80.8168 31.2155 80.0369 31.2155C77.7177 31.2155 75.8809 30.528 74.5263 29.1529C73.1923 27.7778 72.5253 25.8794 72.5253 23.4576C72.5253 21.9183 72.8229 20.5638 73.418 19.3939C74.0132 18.2036 74.8444 17.28 75.9116 16.6232C76.9994 15.9665 78.2308 15.6381 79.6059 15.6381C81.5556 15.6381 83.1052 16.2743 84.2545 17.5468C85.4038 18.8193 85.9785 20.5432 85.9785 22.7187C85.9785 23.1292 85.8964 23.4268 85.7322 23.6115C85.568 23.7962 85.3012 23.8886 84.9318 23.8886H75.0189C75.2036 27.4186 76.8763 29.1837 80.0369 29.1837C80.8373 29.1837 81.5248 29.081 82.0995 28.8758C82.6742 28.6501 83.2899 28.3525 83.9466 27.983C84.4802 27.6752 84.8394 27.5213 85.0241 27.5213ZM79.6367 17.5776C78.3232 17.5776 77.2662 17.9881 76.4658 18.809C75.6859 19.6299 75.2241 20.7895 75.0804 22.2877H83.7927C83.7516 20.769 83.372 19.6094 82.6536 18.809C81.9353 17.9881 80.9297 17.5776 79.6367 17.5776ZM101.666 29.0913C101.912 29.3376 102.035 29.6352 102.035 29.9841C102.035 30.2919 101.923 30.5587 101.697 30.7845C101.471 31.0103 101.204 31.1231 100.896 31.1231C100.568 31.1231 100.27 30.9795 100.004 30.6921L95.0164 24.9969L90.0599 30.6921C89.7931 30.9795 89.4955 31.1231 89.1671 31.1231C88.8593 31.1231 88.5822 31.0103 88.3359 30.7845C88.1102 30.5587 87.9973 30.2817 87.9973 29.9533C87.9973 29.6454 88.1204 29.3581 88.3667 29.0913L93.4771 23.3344L88.5822 17.7623C88.3359 17.475 88.2128 17.1876 88.2128 16.9003C88.2128 16.5719 88.3257 16.2949 88.5514 16.0691C88.7977 15.8433 89.0645 15.7305 89.3519 15.7305C89.6802 15.7305 89.9778 15.8741 90.2446 16.1615L95.0164 21.6413L99.7881 16.1615C100.055 15.8741 100.352 15.7305 100.681 15.7305C100.989 15.7305 101.256 15.8433 101.481 16.0691C101.707 16.2949 101.82 16.5617 101.82 16.8695C101.82 17.2184 101.697 17.516 101.45 17.7623L96.5556 23.3344L101.666 29.0913ZM112.212 29.1837C112.931 29.2452 113.29 29.5736 113.29 30.1688C113.29 30.5177 113.156 30.7845 112.89 30.9692C112.643 31.1334 112.264 31.195 111.751 31.1539L110.919 31.0924C109.278 30.9692 108.067 30.4766 107.287 29.6147C106.507 28.7527 106.117 27.4494 106.117 25.7049V17.9778H104.054C103.705 17.9778 103.428 17.8957 103.223 17.7315C103.038 17.5468 102.946 17.3108 102.946 17.0235C102.946 16.7156 103.038 16.4693 103.223 16.2846C103.428 16.0999 103.705 16.0075 104.054 16.0075H106.117V12.5288C106.117 12.1388 106.23 11.8413 106.456 11.636C106.681 11.4103 106.989 11.2974 107.379 11.2974C107.749 11.2974 108.046 11.4103 108.272 11.636C108.498 11.8413 108.61 12.1388 108.61 12.5288V16.0075H112.028C112.356 16.0075 112.613 16.0999 112.797 16.2846C113.003 16.4693 113.105 16.7156 113.105 17.0235C113.105 17.3108 113.003 17.5468 112.797 17.7315C112.613 17.8957 112.356 17.9778 112.028 17.9778H108.61V25.8281C108.61 26.9569 108.836 27.7778 109.288 28.2909C109.76 28.7835 110.458 29.0605 111.381 29.1221L112.212 29.1837ZM120.797 31.2155C119.853 31.2155 118.95 31.1026 118.088 30.8769C117.246 30.6511 116.497 30.333 115.84 29.9225C115.471 29.6762 115.204 29.4505 115.04 29.2452C114.896 29.0195 114.824 28.7527 114.824 28.4448C114.824 28.178 114.896 27.9625 115.04 27.7983C115.204 27.6136 115.409 27.5213 115.656 27.5213C115.902 27.5213 116.261 27.6752 116.733 27.983C117.349 28.3525 117.954 28.6501 118.549 28.8758C119.165 29.081 119.924 29.1837 120.827 29.1837C121.936 29.1837 122.798 28.9887 123.413 28.5987C124.029 28.2088 124.337 27.6444 124.337 26.9055C124.337 26.454 124.224 26.0949 123.998 25.8281C123.773 25.5407 123.383 25.2944 122.829 25.0892C122.274 24.8635 121.464 24.6377 120.396 24.4119C118.59 24.022 117.297 23.4986 116.518 22.8419C115.738 22.1851 115.348 21.2924 115.348 20.1636C115.348 19.281 115.594 18.5012 116.087 17.8239C116.579 17.1466 117.256 16.613 118.118 16.223C119.001 15.8331 119.996 15.6381 121.105 15.6381C121.905 15.6381 122.675 15.751 123.413 15.9768C124.173 16.182 124.84 16.4796 125.414 16.8695C126.112 17.3621 126.461 17.8752 126.461 18.4088C126.461 18.6756 126.379 18.9014 126.215 19.0861C126.051 19.2708 125.856 19.3631 125.63 19.3631C125.384 19.3631 125.014 19.1887 124.522 18.8398C123.947 18.4704 123.403 18.183 122.89 17.9778C122.377 17.7726 121.741 17.6699 120.981 17.6699C120.017 17.6699 119.237 17.8854 118.642 18.3164C118.067 18.7474 117.78 19.3221 117.78 20.0404C117.78 20.4919 117.882 20.8614 118.088 21.1487C118.313 21.4155 118.672 21.6618 119.165 21.8875C119.678 22.0928 120.407 22.298 121.351 22.5032C122.746 22.8111 123.824 23.1497 124.583 23.5192C125.363 23.8886 125.917 24.3401 126.246 24.8737C126.574 25.4073 126.738 26.0846 126.738 26.9055C126.738 28.1985 126.194 29.2452 125.107 30.0457C124.019 30.8255 122.582 31.2155 120.797 31.2155ZM131.801 31.1539C131.432 31.1539 131.124 31.0513 130.878 30.8461C130.652 30.6203 130.539 30.3125 130.539 29.9225V16.9311C130.539 16.5412 130.652 16.2436 130.878 16.0383C131.124 15.8126 131.432 15.6997 131.801 15.6997C132.171 15.6997 132.468 15.8126 132.694 16.0383C132.92 16.2436 133.033 16.5412 133.033 16.9311V29.9225C133.033 30.333 132.92 30.6408 132.694 30.8461C132.468 31.0513 132.171 31.1539 131.801 31.1539ZM131.801 12.4672C131.309 12.4672 130.909 12.3236 130.601 12.0362C130.293 11.7489 130.139 11.3692 130.139 10.8972C130.139 10.4457 130.293 10.0762 130.601 9.7889C130.909 9.50157 131.309 9.3579 131.801 9.3579C132.294 9.3579 132.694 9.50157 133.002 9.7889C133.31 10.0762 133.464 10.4457 133.464 10.8972C133.464 11.3692 133.31 11.7489 133.002 12.0362C132.694 12.3236 132.294 12.4672 131.801 12.4672ZM144.862 29.1837C145.58 29.2452 145.939 29.5736 145.939 30.1688C145.939 30.5177 145.806 30.7845 145.539 30.9692C145.293 31.1334 144.913 31.195 144.4 31.1539L143.569 31.0924C141.927 30.9692 140.716 30.4766 139.936 29.6147C139.156 28.7527 138.766 27.4494 138.766 25.7049V17.9778H136.704C136.355 17.9778 136.078 17.8957 135.872 17.7315C135.688 17.5468 135.595 17.3108 135.595 17.0235C135.595 16.7156 135.688 16.4693 135.872 16.2846C136.078 16.0999 136.355 16.0075 136.704 16.0075H138.766V12.5288C138.766 12.1388 138.879 11.8413 139.105 11.636C139.331 11.4103 139.638 11.2974 140.028 11.2974C140.398 11.2974 140.695 11.4103 140.921 11.636C141.147 11.8413 141.26 12.1388 141.26 12.5288V16.0075H144.677C145.005 16.0075 145.262 16.0999 145.447 16.2846C145.652 16.4693 145.754 16.7156 145.754 17.0235C145.754 17.3108 145.652 17.5468 145.447 17.7315C145.262 17.8957 145.005 17.9778 144.677 17.9778H141.26V25.8281C141.26 26.9569 141.486 27.7778 141.937 28.2909C142.409 28.7835 143.107 29.0605 144.03 29.1221L144.862 29.1837ZM160.003 27.5213C160.229 27.5213 160.424 27.6136 160.588 27.7983C160.752 27.983 160.834 28.2191 160.834 28.5064C160.834 29.0195 160.475 29.4915 159.757 29.9225C159.018 30.3535 158.238 30.6819 157.417 30.9076C156.596 31.1129 155.796 31.2155 155.016 31.2155C152.697 31.2155 150.86 30.528 149.505 29.1529C148.171 27.7778 147.504 25.8794 147.504 23.4576C147.504 21.9183 147.802 20.5638 148.397 19.3939C148.992 18.2036 149.824 17.28 150.891 16.6232C151.979 15.9665 153.21 15.6381 154.585 15.6381C156.535 15.6381 158.084 16.2743 159.234 17.5468C160.383 18.8193 160.958 20.5432 160.958 22.7187C160.958 23.1292 160.875 23.4268 160.711 23.6115C160.547 23.7962 160.28 23.8886 159.911 23.8886H149.998C150.183 27.4186 151.855 29.1837 155.016 29.1837C155.816 29.1837 156.504 29.081 157.079 28.8758C157.653 28.6501 158.269 28.3525 158.926 27.983C159.459 27.6752 159.819 27.5213 160.003 27.5213ZM154.616 17.5776C153.302 17.5776 152.245 17.9881 151.445 18.809C150.665 19.6299 150.203 20.7895 150.06 22.2877H158.772C158.731 20.769 158.351 19.6094 157.633 18.809C156.914 17.9881 155.909 17.5776 154.616 17.5776ZM169.68 31.2155C168.736 31.2155 167.833 31.1026 166.971 30.8769C166.13 30.6511 165.381 30.333 164.724 29.9225C164.355 29.6762 164.088 29.4505 163.924 29.2452C163.78 29.0195 163.708 28.7527 163.708 28.4448C163.708 28.178 163.78 27.9625 163.924 27.7983C164.088 27.6136 164.293 27.5213 164.539 27.5213C164.786 27.5213 165.145 27.6752 165.617 27.983C166.232 28.3525 166.838 28.6501 167.433 28.8758C168.049 29.081 168.808 29.1837 169.711 29.1837C170.819 29.1837 171.681 28.9887 172.297 28.5987C172.913 28.2088 173.221 27.6444 173.221 26.9055C173.221 26.454 173.108 26.0949 172.882 25.8281C172.656 25.5407 172.266 25.2944 171.712 25.0892C171.158 24.8635 170.347 24.6377 169.28 24.4119C167.474 24.022 166.181 23.4986 165.401 22.8419C164.621 22.1851 164.231 21.2924 164.231 20.1636C164.231 19.281 164.478 18.5012 164.97 17.8239C165.463 17.1466 166.14 16.613 167.002 16.223C167.885 15.8331 168.88 15.6381 169.988 15.6381C170.789 15.6381 171.558 15.751 172.297 15.9768C173.057 16.182 173.724 16.4796 174.298 16.8695C174.996 17.3621 175.345 17.8752 175.345 18.4088C175.345 18.6756 175.263 18.9014 175.099 19.0861C174.934 19.2708 174.739 19.3631 174.514 19.3631C174.267 19.3631 173.898 19.1887 173.405 18.8398C172.831 18.4704 172.287 18.183 171.774 17.9778C171.261 17.7726 170.625 17.6699 169.865 17.6699C168.901 17.6699 168.121 17.8854 167.525 18.3164C166.951 18.7474 166.663 19.3221 166.663 20.0404C166.663 20.4919 166.766 20.8614 166.971 21.1487C167.197 21.4155 167.556 21.6618 168.049 21.8875C168.562 22.0928 169.29 22.298 170.235 22.5032C171.63 22.8111 172.708 23.1497 173.467 23.5192C174.247 23.8886 174.801 24.3401 175.129 24.8737C175.458 25.4073 175.622 26.0846 175.622 26.9055C175.622 28.1985 175.078 29.2452 173.99 30.0457C172.903 30.8255 171.466 31.2155 169.68 31.2155Z" fill="black"/>
<defs>
<linearGradient id="paint0_linear_119_32" x1="35.8168" y1="5.6074" x2="22.843" y2="18.3613" gradientUnits="userSpaceOnUse">
<stop stop-color="#1D8448"/>
<stop offset="0.708333" stop-color="#2DCC70"/>
</linearGradient>
<linearGradient id="paint1_linear_119_32" x1="49.6702" y1="23.1989" x2="24.7121" y2="21.7696" gradientUnits="userSpaceOnUse">
<stop stop-color="#056F68"/>
<stop offset="0.625" stop-color="#00A79D"/>
</linearGradient>
<linearGradient id="paint2_linear_119_32" x1="20.644" y1="24.6283" x2="26.0314" y2="43.9791" gradientUnits="userSpaceOnUse">
<stop offset="0.219186" stop-color="#1C74BC"/>
<stop offset="1" stop-color="#0D3556"/>
</linearGradient>
<linearGradient id="paint3_linear_119_32" x1="16.0261" y1="23.4189" x2="0.413575" y2="33.9739" gradientUnits="userSpaceOnUse">
<stop stop-color="#E600EB"/>
<stop offset="1" stop-color="#68046A"/>
</linearGradient>
<linearGradient id="paint4_linear_119_32" x1="16.466" y1="20.0104" x2="-6.29306" y2="14.0733" gradientUnits="userSpaceOnUse">
<stop offset="0.203125" stop-color="#F12929"/>
<stop offset="1" stop-color="#9B0606"/>
</linearGradient>
<linearGradient id="paint5_linear_119_32" x1="6.57068" y1="-3.59779e-05" x2="19.3246" y2="18.2513" gradientUnits="userSpaceOnUse">
<stop stop-color="#D17D00"/>
<stop offset="1" stop-color="#FCB040"/>
</linearGradient>
<radialGradient id="paint6_radial_119_32" cx="0" cy="0" r="1" gradientUnits="userSpaceOnUse" gradientTransform="translate(20.0942 20.7801) rotate(90) scale(4.50785)">
<stop stop-color="#4E4E4F"/>
<stop offset="0.0001" stop-color="#686868"/>
<stop offset="0.776042" stop-color="#303030"/>
</radialGradient>
</defs>
</svg>
